<svg xmlns="http://www.w3.org/2000/svg" version="1.1" xmlns:xlink="http://www.w3.org/1999/xlink" xmlns:svgjs="http://svgjs.dev/svgjs" width="1440" height="560" preserveAspectRatio="none" viewBox="0 0 1440 560"><g mask="url(&quot;#SvgjsMask1191&quot;)" fill="none"><rect width="1440" height="560" x="0" y="0" fill="rgba(202, 213, 240, 1)"></rect><path d="M1464 560L0 560 L0 464.67Q63.76 408.44, 120 472.2Q159.52 391.72, 240 431.24Q305.84 377.08, 360 442.92Q440.51 403.43, 480 483.94Q510.71 442.65, 552 473.36Q572.51 421.87, 624 442.38Q665.17 411.55, 696 452.72Q743.57 380.29, 816 427.85Q876.17 416.02, 888 476.2Q911.11 427.31, 960 450.42Q1002.47 420.89, 1032 463.36Q1079.42 438.78, 1104 486.21Q1115.97 426.19, 1176 438.16Q1219.89 410.05, 1248 453.94Q1298.64 432.59, 1320 483.23Q1346.98 438.21, 1392 465.19Q1420.27 421.46, 1464 449.72z" fill="rgba(128, 136, 219, 1)"></path><path d="M1464 560L0 560 L0 485.32Q72.85 438.17, 120 511.03Q163.29 482.32, 192 525.61Q214.69 476.3, 264 498.98Q331.31 446.29, 384 513.6Q449.48 459.08, 504 524.55Q520.86 469.41, 576 486.27Q606.31 444.58, 648 474.89Q726.44 433.33, 768 511.78Q818.5 442.28, 888 492.78Q939.19 471.97, 960 523.17Q993.88 437.05, 1080 470.94Q1157.3 428.24, 1200 505.53Q1271.4 456.93, 1320 528.34Q1328.57 464.91, 1392 473.48Q1457.42 466.91, 1464 532.33z" fill="rgba(166, 150, 234, 1)"></path><path d="M1464 560L0 560 L0 569.52Q10.67 508.19, 72 518.87Q139.28 466.15, 192 533.43Q236.35 505.78, 264 550.13Q335.33 501.46, 384 572.8Q423.59 492.38, 504 531.97Q532.06 488.03, 576 516.09Q629.22 497.31, 648 550.53Q698.88 481.41, 768 532.29Q823.94 516.23, 840 572.17Q862.34 522.5, 912 544.84Q979.57 492.41, 1032 559.99Q1098.38 506.37, 1152 572.74Q1184.56 485.3, 1272 517.86Q1339.52 465.38, 1392 532.9Q1448.41 517.31, 1464 573.72z" fill="rgba(226, 225, 232, 1)"></path></g><defs><mask id="SvgjsMask1191"><rect width="1440" height="560" fill="#ffffff"></rect></mask></defs></svg>